<svg width="25" height="22" viewBox="0 0 25 22" fill="none" xmlns="http://www.w3.org/2000/svg">
<path fill-rule="evenodd" clip-rule="evenodd" d="M15.4 0.25C14.9858 0.25 14.65 0.585786 14.65 1C14.65 1.41421 14.9858 1.75 15.4 1.75C17.1949 1.75 18.65 3.20507 18.65 5C18.65 6.79493 17.1949 8.25 15.4 8.25C14.9858 8.25 14.65 8.58579 14.65 9C14.65 9.41421 14.9858 9.75 15.4 9.75C18.0234 9.75 20.15 7.62335 20.15 5C20.15 2.37665 18.0234 0.25 15.4 0.25ZM17.4 12.25C16.9858 12.25 16.65 12.5858 16.65 13C16.65 13.4142 16.9858 13.75 17.4 13.75H18.6C20.8368 13.75 22.65 15.5632 22.65 17.8C22.65 19.1531 21.5531 20.25 20.2 20.25H17.4C16.9858 20.25 16.65 20.5858 16.65 21C16.65 21.4142 16.9858 21.75 17.4 21.75H20.2C22.3815 21.75 24.15 19.9815 24.15 17.8C24.15 14.7348 21.6652 12.25 18.6 12.25H17.4ZM3.65001 5C3.65001 2.37665 5.77666 0.25 8.40001 0.25C11.0234 0.25 13.15 2.37665 13.15 5C13.15 7.62335 11.0234 9.75 8.40001 9.75C5.77666 9.75 3.65001 7.62335 3.65001 5ZM6.20001 12.25C3.13483 12.25 0.650009 14.7348 0.650009 17.8C0.650009 19.9815 2.41848 21.75 4.60001 21.75H12.2C14.3815 21.75 16.15 19.9815 16.15 17.8C16.15 14.7348 13.6652 12.25 10.6 12.25H6.20001Z"/>
</svg>
