<svg width="23" height="22" viewBox="0 0 23 22" fill="none" xmlns="http://www.w3.org/2000/svg">
<path fill-rule="evenodd" clip-rule="evenodd" d="M14.6 1.75C11.1482 1.75 8.35001 4.54822 8.35001 8C8.35001 8.52398 8.36679 9.14009 8.43327 9.72725C8.50125 10.3277 8.615 10.8362 8.77745 11.1782C8.91359 11.4648 8.85468 11.806 8.63034 12.0303L2.63034 18.0303C2.54457 18.1161 2.52046 18.1405 2.50346 18.1592C2.07009 18.636 2.07009 19.364 2.50346 19.8408C2.52046 19.8595 2.54457 19.8839 2.63034 19.9697C2.71611 20.0554 2.74052 20.0795 2.75922 20.0965C3.23598 20.5299 3.96404 20.5299 4.4408 20.0965C4.4595 20.0795 4.48391 20.0554 4.56968 19.9697L10.5697 13.9697C10.794 13.7453 11.1353 13.6864 11.4218 13.8226C11.7638 13.985 12.2723 14.0988 12.8728 14.1667C13.4599 14.2332 14.076 14.25 14.6 14.25C18.0518 14.25 20.85 11.4518 20.85 8C20.85 7.8444 20.8443 7.6902 20.8332 7.53759L19.3931 8.97771L19.3716 8.99922C18.9939 9.37694 18.6786 9.69221 18.4 9.92872C18.1094 10.1754 17.8098 10.3801 17.4498 10.4971C16.8975 10.6766 16.3025 10.6766 15.7502 10.4971C15.3902 10.3801 15.0906 10.1754 14.8 9.92872C14.5214 9.69221 14.2061 9.37694 13.8284 8.99922L13.8069 8.97771L13.6223 8.79307L13.6008 8.77155C13.2231 8.39385 12.9078 8.0786 12.6713 7.8C12.4246 7.50944 12.2199 7.20979 12.1029 6.8498C11.9235 6.29748 11.9235 5.70252 12.1029 5.1502C12.2199 4.79021 12.4246 4.49056 12.6713 4.2C12.9078 3.9214 13.2231 3.60615 13.6008 3.22845L13.6223 3.20693L15.0624 1.76681C14.9098 1.75567 14.7556 1.75 14.6 1.75ZM6.85001 8C6.85001 3.71979 10.3198 0.25 14.6 0.25C15.3682 0.25 16.1115 0.361993 16.8139 0.571039C17.0672 0.646422 17.2622 0.849549 17.3271 1.10573C17.3919 1.36191 17.3172 1.63334 17.1303 1.82021L14.683 4.26759C14.2782 4.67236 14.0069 4.94445 13.8148 5.17076C13.6284 5.39038 13.5609 5.51706 13.5295 5.61373C13.4479 5.86478 13.4479 6.13522 13.5295 6.38627C13.5609 6.48294 13.6284 6.60962 13.8148 6.82924C14.0069 7.05555 14.2782 7.32764 14.683 7.73241L14.8676 7.91705C15.2724 8.32182 15.5445 8.59309 15.7708 8.78521C15.9904 8.97165 16.1171 9.03911 16.2137 9.07051C16.4648 9.15209 16.7352 9.15209 16.9863 9.07051C17.0829 9.03911 17.2096 8.97165 17.4292 8.78521C17.6556 8.59309 17.9277 8.32182 18.3324 7.91705L20.7798 5.46967C20.9667 5.2828 21.2381 5.20807 21.4943 5.27296C21.7505 5.33784 21.9536 5.53277 22.029 5.78606C22.238 6.48847 22.35 7.23182 22.35 8C22.35 12.2802 18.8802 15.75 14.6 15.75C14.0504 15.75 13.3711 15.7328 12.704 15.6572C12.2342 15.604 11.7382 15.5187 11.2857 15.3749L5.63034 21.0303L5.61782 21.0429C5.55045 21.1102 5.49857 21.1621 5.44974 21.2065C4.40087 22.1599 2.79915 22.1599 1.75028 21.2065C1.70147 21.1622 1.64963 21.1103 1.58231 21.043L1.56968 21.0303L1.55712 21.0178C1.48975 20.9504 1.43787 20.8986 1.39349 20.8497C0.440084 19.8009 0.440084 18.1991 1.39349 17.1503C1.43788 17.1014 1.48976 17.0496 1.55714 16.9822L1.56968 16.9697L7.22507 11.3143C7.0813 10.8618 6.99598 10.3658 6.94279 9.89601C6.86726 9.22888 6.85001 8.54962 6.85001 8Z" fill="#444C4B"/>
</svg>