<svg width="25" height="24" viewBox="0 0 25 24" fill="none" xmlns="http://www.w3.org/2000/svg">
<path fill-rule="evenodd" clip-rule="evenodd" d="M15.8005 1.25C11.5203 1.25 8.05048 4.71979 8.05048 9C8.05048 9.54962 8.06773 10.2289 8.14326 10.896C8.19645 11.3658 8.28177 11.8618 8.42554 12.3143L2.77015 17.9697L2.75761 17.9822L2.75758 17.9822C2.69022 18.0496 2.63834 18.1014 2.59396 18.1503C1.64055 19.1991 1.64055 20.8009 2.59396 21.8497C2.63834 21.8986 2.69022 21.9504 2.75759 22.0178L2.77015 22.0303L2.78278 22.043L2.78287 22.043C2.85014 22.1103 2.90196 22.1622 2.95075 22.2065C3.99962 23.1599 5.60134 23.1599 6.65021 22.2065C6.69902 22.1621 6.75087 22.1103 6.81818 22.043L6.81829 22.0429L6.83081 22.0303L12.4862 16.3749C12.9387 16.5187 13.4347 16.604 13.9045 16.6572C14.5716 16.7328 15.2509 16.75 15.8005 16.75C20.0807 16.75 23.5505 13.2802 23.5505 9C23.5505 8.23182 23.4385 7.48847 23.2294 6.78606C23.1541 6.53277 22.9509 6.33784 22.6947 6.27296C22.4386 6.20807 22.1671 6.2828 21.9803 6.46967L19.5329 8.91705C19.1281 9.32182 18.856 9.59309 18.6297 9.78521C18.4101 9.97165 18.2834 10.0391 18.1868 10.0705C17.9357 10.1521 17.6653 10.1521 17.4142 10.0705C17.3175 10.0391 17.1909 9.97165 16.9712 9.78521C16.7449 9.59309 16.4728 9.32182 16.0681 8.91705L15.8834 8.73241C15.4787 8.32764 15.2074 8.05555 15.0153 7.82924C14.8288 7.60962 14.7614 7.48294 14.73 7.38627C14.6484 7.13522 14.6484 6.86478 14.73 6.61373C14.7614 6.51706 14.8288 6.39038 15.0153 6.17076C15.2074 5.94445 15.4787 5.67236 15.8834 5.26759L18.3308 2.82021C18.5177 2.63334 18.5924 2.36191 18.5275 2.10573C18.4626 1.84955 18.2677 1.64642 18.0144 1.57104C17.312 1.36199 16.5687 1.25 15.8005 1.25Z" fill="#36796F"/>
</svg>