<svg width="18" height="6" viewBox="0 0 18 6" fill="none" xmlns="http://www.w3.org/2000/svg">
<path fill-rule="evenodd" clip-rule="evenodd" d="M0.166687 3C0.166687 1.57802 1.32804 0.416664 2.75002 0.416664C4.172 0.416664 5.33335 1.57802 5.33335 3C5.33335 4.42197 4.172 5.58333 2.75002 5.58333C1.32804 5.58333 0.166687 4.42197 0.166687 3ZM2.75002 1.41666C1.88033 1.41666 1.16669 2.13031 1.16669 3C1.16669 3.86969 1.88033 4.58333 2.75002 4.58333C3.61971 4.58333 4.33335 3.86969 4.33335 3C4.33335 2.13031 3.61971 1.41666 2.75002 1.41666ZM12.6667 3C12.6667 1.57802 13.828 0.416664 15.25 0.416664C16.672 0.416664 17.8334 1.57802 17.8334 3C17.8334 4.42197 16.672 5.58333 15.25 5.58333C13.828 5.58333 12.6667 4.42197 12.6667 3ZM15.25 1.41666C14.3803 1.41666 13.6667 2.13031 13.6667 3C13.6667 3.86969 14.3803 4.58333 15.25 4.58333C16.1197 4.58333 16.8334 3.86969 16.8334 3C16.8334 2.13031 16.1197 1.41666 15.25 1.41666ZM9.00002 0.416664C7.57804 0.416664 6.41669 1.57802 6.41669 3C6.41669 4.42197 7.57804 5.58333 9.00002 5.58333C10.422 5.58333 11.5834 4.42197 11.5834 3C11.5834 1.57802 10.422 0.416664 9.00002 0.416664ZM7.41669 3C7.41669 2.13031 8.13033 1.41666 9.00002 1.41666C9.86971 1.41666 10.5834 2.13031 10.5834 3C10.5834 3.86969 9.86971 4.58333 9.00002 4.58333C8.13033 4.58333 7.41669 3.86969 7.41669 3Z" fill="#36796F"/>
</svg>
