<svg width="18" height="18" viewBox="0 0 18 18" fill="none" xmlns="http://www.w3.org/2000/svg">
<path fill-rule="evenodd" clip-rule="evenodd" d="M7.04339 0.166504H7.06602H10.9327H10.9553C12.0563 0.166501 12.9132 0.166499 13.6006 0.222661C14.2985 0.279684 14.8656 0.397087 15.3756 0.656975C16.2224 1.0884 16.9108 1.77682 17.3422 2.62355C17.6021 3.1336 17.7195 3.70067 17.7765 4.3986C17.8327 5.08595 17.8327 5.94283 17.8327 7.04372V7.04374V7.04377V7.04379V7.04382V7.04384V7.04386V7.0665V7.59984V7.62248V7.62251V7.62253V7.62255V7.62258V7.6226V7.62263C17.8327 8.72351 17.8327 9.58039 17.7765 10.2677C17.7195 10.9657 17.6021 11.5327 17.3422 12.0428C16.9108 12.8895 16.2224 13.5779 15.3756 14.0094C14.8656 14.2693 14.2985 14.3867 13.6006 14.4437C12.9132 14.4998 12.0563 14.4998 10.9553 14.4998H10.9327H7.06602H7.04337C5.94242 14.4998 5.08549 14.4998 4.39811 14.4437C3.70018 14.3867 3.13312 14.2693 2.62306 14.0094C1.77633 13.5779 1.08792 12.8895 0.656486 12.0428C0.396599 11.5327 0.279196 10.9657 0.222173 10.2677C0.166011 9.58036 0.166013 8.72342 0.166016 7.62247V7.62246V7.59984V7.0665V7.04387V7.04387C0.166013 5.94291 0.166011 5.08598 0.222173 4.3986C0.279196 3.70067 0.396599 3.1336 0.656486 2.62355C1.08792 1.77682 1.77633 1.0884 2.62306 0.656975C3.13312 0.397087 3.70018 0.279684 4.39811 0.222661C5.0855 0.166499 5.94243 0.166501 7.04338 0.166504H7.04339ZM3.07705 1.54798C3.39531 1.38582 3.77738 1.28769 4.33263 1.23259C4.33211 1.84529 4.32697 2.10812 4.28465 2.3209C4.08738 3.31262 3.31213 4.08787 2.32041 4.28513C2.10763 4.32746 1.84481 4.3326 1.2321 4.33312C1.2872 3.77787 1.38533 3.3958 1.54749 3.07754C1.88305 2.41897 2.41848 1.88354 3.07705 1.54798ZM1.16602 7.0665C1.16602 6.38497 1.16616 5.81733 1.17783 5.33318C1.79489 5.33324 2.18205 5.33225 2.5155 5.26592C3.90391 4.98975 4.98926 3.9044 5.26543 2.51599C5.33176 2.18253 5.33275 1.79538 5.33269 1.17831C5.81684 1.16665 6.38449 1.1665 7.06602 1.1665H10.9327C11.6142 1.1665 12.1819 1.16665 12.666 1.17831C12.6659 1.79538 12.6669 2.18253 12.7333 2.51598C13.0094 3.9044 14.0948 4.98975 15.4832 5.26592C15.8167 5.33225 16.2038 5.33324 16.8209 5.33318C16.8325 5.81733 16.8327 6.38498 16.8327 7.0665V7.59984C16.8327 8.28137 16.8325 8.84902 16.8209 9.33316C16.2038 9.33311 15.8167 9.3341 15.4832 9.40042C14.0948 9.6766 13.0094 10.7619 12.7333 12.1504C12.6669 12.4838 12.6659 12.871 12.666 13.488C12.1819 13.4997 11.6142 13.4998 10.9327 13.4998H7.06602C6.38449 13.4998 5.81684 13.4997 5.33269 13.488C5.33275 12.871 5.33176 12.4838 5.26543 12.1504C4.98926 10.7619 3.90391 9.6766 2.5155 9.40042C2.18204 9.3341 1.79489 9.33311 1.17783 9.33316C1.16616 8.84901 1.16602 8.28137 1.16602 7.59984V7.0665ZM1.2321 10.3332C1.2872 10.8885 1.38533 11.2705 1.54749 11.5888C1.88305 12.2474 2.41848 12.7828 3.07705 13.1184C3.39531 13.2805 3.77738 13.3787 4.33263 13.4337C4.33211 12.821 4.32697 12.5582 4.28465 12.3454C4.08738 11.3537 3.31213 10.5785 2.32041 10.3812C2.10763 10.3389 1.84481 10.3337 1.2321 10.3332ZM15.6783 10.3812C15.8911 10.3389 16.1539 10.3337 16.7666 10.3332C16.7115 10.8885 16.6134 11.2705 16.4512 11.5888C16.1157 12.2474 15.5802 12.7828 14.9217 13.1184C14.6034 13.2805 14.2213 13.3787 13.6661 13.4337C13.6666 12.821 13.6717 12.5582 13.7141 12.3454C13.9113 11.3537 14.6866 10.5785 15.6783 10.3812ZM16.7666 4.33312C16.7115 3.77787 16.6134 3.3958 16.4512 3.07754C16.1157 2.41897 15.5802 1.88354 14.9217 1.54798C14.6034 1.38582 14.2213 1.28769 13.6661 1.23259C13.6666 1.84529 13.6717 2.10812 13.7141 2.32089C13.9113 3.31262 14.6866 4.08787 15.6783 4.28513C15.8911 4.32746 16.1539 4.3326 16.7666 4.33312ZM8.99925 6.16691C8.35491 6.16691 7.83258 6.68924 7.83258 7.33358C7.83258 7.97791 8.35491 8.50024 8.99925 8.50024C9.64358 8.50024 10.1659 7.97791 10.1659 7.33358C10.1659 6.68924 9.64358 6.16691 8.99925 6.16691ZM6.83258 7.33358C6.83258 6.13696 7.80263 5.16691 8.99925 5.16691C10.1959 5.16691 11.1659 6.13696 11.1659 7.33358C11.1659 8.53019 10.1959 9.50024 8.99925 9.50024C7.80263 9.50024 6.83258 8.53019 6.83258 7.33358ZM3.16602 16.8332C2.88987 16.8332 2.66602 17.057 2.66602 17.3332C2.66602 17.6093 2.88987 17.8332 3.16602 17.8332H14.8327C15.1088 17.8332 15.3327 17.6093 15.3327 17.3332C15.3327 17.057 15.1088 16.8332 14.8327 16.8332H3.16602Z" fill="#36796F"/>
</svg>
