<svg width="18" height="16" viewBox="0 0 18 16" fill="none" xmlns="http://www.w3.org/2000/svg">
<path fill-rule="evenodd" clip-rule="evenodd" d="M7.04339 3.45626e-08H7.06602H10.9327H10.9553C12.0563 -2.52844e-06 12.9132 -4.6146e-06 13.6006 0.0561574C14.2985 0.11318 14.8656 0.230583 15.3756 0.490471C16.2224 0.921901 16.9108 1.61031 17.3422 2.45704C17.6021 2.9671 17.7195 3.53416 17.7765 4.23209C17.8327 4.91947 17.8327 5.77638 17.8327 6.87731V6.87734V6.87736V6.9V9.1V9.12264V9.12267V9.12269C17.8327 10.2236 17.8327 11.0805 17.7765 11.7679C17.7195 12.4658 17.6021 13.0329 17.3422 13.543C16.9108 14.3897 16.2224 15.0781 15.3756 15.5095C14.8656 15.7694 14.2985 15.8868 13.6006 15.9438C12.9132 16 12.0563 16 10.9553 16H10.9327H7.06602H7.04338C5.94243 16 5.0855 16 4.39811 15.9438C3.70018 15.8868 3.13312 15.7694 2.62306 15.5095C1.77633 15.0781 1.08792 14.3897 0.656486 13.543C0.396599 13.0329 0.279196 12.4658 0.222173 11.7679C0.166011 11.0805 0.166013 10.2236 0.166016 9.12263V9.1V6.9V6.87737V6.87737C0.166013 5.77641 0.166011 4.91948 0.222173 4.23209C0.279196 3.53416 0.396599 2.9671 0.656486 2.45704C1.08792 1.61031 1.77633 0.921901 2.62306 0.490471C3.13312 0.230584 3.70018 0.11318 4.39811 0.0561574C5.0855 -4.52519e-06 5.94243 -2.52844e-06 7.04338 3.45626e-08H7.04339ZM4.47954 1.05284C3.84345 1.10481 3.42264 1.20539 3.07705 1.38148C2.41848 1.71703 1.88305 2.25247 1.54749 2.91103C1.38532 3.22931 1.28719 3.61139 1.2321 4.16667H16.7666C16.7115 3.61139 16.6134 3.22931 16.4512 2.91103C16.1156 2.25247 15.5802 1.71703 14.9216 1.38148C14.5761 1.20539 14.1552 1.10481 13.5192 1.05284C12.8772 1.00039 12.061 1 10.9327 1H7.06602C5.93766 1 5.12146 1.00039 4.47954 1.05284ZM1.16602 6.9C1.16602 6.21847 1.16616 5.65082 1.17783 5.16667H16.8209C16.8325 5.65082 16.8327 6.21847 16.8327 6.9V9.1C16.8327 10.2284 16.8323 11.0446 16.7798 11.6865C16.7279 12.3226 16.6273 12.7434 16.4512 13.089C16.1156 13.7475 15.5802 14.283 14.9216 14.6185C14.5761 14.7946 14.1552 14.8952 13.5192 14.9472C12.8772 14.9996 12.061 15 10.9327 15H7.06602C5.93766 15 5.12147 14.9996 4.47954 14.9472C3.84345 14.8952 3.42264 14.7946 3.07705 14.6185C2.41848 14.283 1.88305 13.7475 1.54749 13.089C1.37141 12.7434 1.27082 12.3226 1.21885 11.6865C1.1664 11.0446 1.16602 10.2284 1.16602 9.1V6.9ZM3.99925 7.5C3.7231 7.5 3.49925 7.72386 3.49925 8C3.49925 8.27614 3.7231 8.5 3.99925 8.5H7.33258C7.60872 8.5 7.83258 8.27614 7.83258 8C7.83258 7.72386 7.60872 7.5 7.33258 7.5H3.99925Z" fill="#36796F"/>
</svg>
