<svg width="18" height="18" viewBox="0 0 18 18" fill="none" xmlns="http://www.w3.org/2000/svg">
<path fill-rule="evenodd" clip-rule="evenodd" d="M8.88208 0.166508L8.99936 0.166512L9.11663 0.166508C11.1764 0.166403 12.3326 0.166344 13.2873 0.467351C15.3098 1.10506 16.8941 2.68936 17.5319 4.71193C17.8329 5.6666 17.8328 6.82282 17.8327 8.88259L17.8327 8.99985V11.6428C17.8327 13.2846 17.1805 14.8591 16.0196 16.0201C14.8587 17.181 13.2841 17.8332 11.6423 17.8332H8.99935L8.8821 17.8332C6.82233 17.8333 5.66611 17.8333 4.71144 17.5323C2.68887 16.8946 1.10458 15.3103 0.466863 13.2878C0.165856 12.3331 0.165915 11.1769 0.166019 9.11712L0.166023 8.99985L0.166019 8.88257C0.165915 6.82282 0.165856 5.6666 0.466863 4.71193C1.10458 2.68936 2.68887 1.10506 4.71144 0.467351C5.66611 0.166344 6.82233 0.166403 8.88208 0.166508ZM8.99936 1.16651C6.79036 1.16651 5.80099 1.17235 5.01214 1.42107C3.30074 1.96067 1.96018 3.30123 1.42058 5.01263C1.17186 5.80148 1.16602 6.79085 1.16602 8.99985C1.16602 11.2088 1.17186 12.1982 1.42058 12.9871C1.96018 14.6985 3.30074 16.039 5.01214 16.5786C5.80099 16.8273 6.79036 16.8332 8.99935 16.8332H11.6423C11.7059 16.8332 11.7694 16.832 11.8327 16.8297V15.5332V15.5118V15.5117C11.8327 14.9698 11.8327 14.5328 11.8616 14.1788C11.8914 13.8144 11.9543 13.4943 12.1052 13.1982C12.3449 12.7278 12.7273 12.3453 13.1977 12.1056C13.4939 11.9547 13.814 11.8918 14.1784 11.8621C14.5323 11.8331 14.9694 11.8331 15.5113 11.8332H15.5327H16.8292C16.8315 11.7699 16.8327 11.7064 16.8327 11.6428V8.99985C16.8327 6.79085 16.8269 5.80148 16.5781 5.01263C16.0385 3.30123 14.698 1.96067 12.9866 1.42107C12.1977 1.17235 11.2084 1.16651 8.99936 1.16651ZM15.3125 15.313C14.6248 16.0006 13.7641 16.4754 12.8327 16.6949V15.5332C12.8327 14.9649 12.8331 14.5687 12.8583 14.2603C12.883 13.9577 12.9291 13.7838 12.9962 13.6522C13.14 13.3699 13.3695 13.1405 13.6517 12.9966C13.7834 12.9296 13.9572 12.8835 14.2598 12.8587C14.5682 12.8335 14.9644 12.8332 15.5327 12.8332H16.6944C16.4749 13.7646 16.0001 14.6253 15.3125 15.313ZM4.83269 4.33318C4.55655 4.33318 4.33269 4.55703 4.33269 4.83318C4.33269 5.10932 4.55655 5.33318 4.83269 5.33318H11.4994C11.7755 5.33318 11.9994 5.10932 11.9994 4.83318C11.9994 4.55703 11.7755 4.33318 11.4994 4.33318H4.83269ZM4.33269 8.16651C4.33269 7.89037 4.55655 7.66651 4.83269 7.66651H9.83269C10.1088 7.66651 10.3327 7.89037 10.3327 8.16651C10.3327 8.44265 10.1088 8.66651 9.83269 8.66651H4.83269C4.55655 8.66651 4.33269 8.44265 4.33269 8.16651ZM4.83269 10.9998C4.55655 10.9998 4.33269 11.2237 4.33269 11.4998C4.33269 11.776 4.55655 11.9998 4.83269 11.9998H6.49936C6.7755 11.9998 6.99936 11.776 6.99936 11.4998C6.99936 11.2237 6.7755 10.9998 6.49936 10.9998H4.83269Z" fill="#36796F"/>
</svg>
