<svg width="18" height="18" viewBox="0 0 18 18" fill="none" xmlns="http://www.w3.org/2000/svg">
<path fill-rule="evenodd" clip-rule="evenodd" d="M5.93056 1.16663C6.31149 1.16663 6.462 1.16741 6.59701 1.18287C7.33676 1.2676 8.00023 1.67765 8.40684 2.3014C8.48105 2.41525 8.54906 2.54952 8.71941 2.89024L8.73251 2.91643C8.82985 3.11119 8.89685 3.24523 8.97505 3.36519C9.26406 3.80855 9.68286 4.14395 10.1666 4.33129V4.8333C10.1666 6.02991 11.1366 6.99996 12.3332 6.99996C13.5299 6.99996 14.4999 6.02991 14.4999 4.8333V4.70011C15.4969 5.0526 16.2812 5.83699 16.6334 6.83413C16.8261 7.37954 16.8333 8.07704 16.8333 9.72945V10.9333C16.8333 12.0617 16.8329 12.8778 16.7805 13.5198C16.7285 14.1559 16.6279 14.5767 16.4518 14.9223C16.1163 15.5808 15.5808 16.1163 14.9223 16.4518C14.5767 16.6279 14.1559 16.7285 13.5198 16.7805C12.8778 16.8329 12.0616 16.8333 10.9333 16.8333H7.06663C5.93827 16.8333 5.12208 16.8329 4.48015 16.7805C3.84406 16.7285 3.42325 16.6279 3.07766 16.4518C2.41909 16.1163 1.88366 15.5808 1.5481 14.9223C1.37202 14.5767 1.27143 14.1559 1.21946 13.5198C1.16701 12.8778 1.16663 12.0617 1.16663 10.9333V5.30189C1.16663 4.53194 1.16695 3.98179 1.19909 3.54922C1.23086 3.12172 1.29169 2.84911 1.39224 2.62875C1.64212 2.08117 2.08117 1.64213 2.62875 1.39225C2.8491 1.29169 3.12172 1.23087 3.54922 1.1991C3.98179 1.16695 4.53194 1.16663 5.30188 1.16663H5.93056ZM13.4999 4.52963C13.0466 4.50185 12.4506 4.49996 11.6038 4.49996H11.324L11.2947 4.49997C11.2492 4.49997 11.2067 4.49998 11.1666 4.49984V4.8333C11.1666 5.47763 11.6889 5.99996 12.3332 5.99996C12.9776 5.99996 13.4999 5.47763 13.4999 4.8333V4.52963ZM5.9637 0.166627H5.96366L5.93056 0.16663H5.30188H5.28176C4.53633 0.166627 3.94907 0.166625 3.47511 0.201848C2.99181 0.237764 2.58654 0.31231 2.2136 0.482497C1.44699 0.832327 0.832323 1.44699 0.482492 2.2136C0.312306 2.58654 0.23776 2.99182 0.201844 3.47511C0.166621 3.94908 0.166623 4.53633 0.166626 5.28176V5.28176V5.30189V10.9333V10.9559C0.166623 12.0569 0.166621 12.9138 0.222783 13.6012C0.279806 14.2991 0.39721 14.8662 0.657097 15.3763C1.08853 16.223 1.77694 16.9114 2.62367 17.3428C3.13373 17.6027 3.70079 17.7201 4.39872 17.7771C5.08609 17.8333 5.943 17.8333 7.04391 17.8333H7.04394H7.04396H7.04399H7.06663H10.9333H10.9559H10.956H10.956H10.956C12.0569 17.8333 12.9138 17.8333 13.6012 17.7771C14.2991 17.7201 14.8662 17.6027 15.3763 17.3428C16.223 16.9114 16.9114 16.223 17.3428 15.3763C17.6027 14.8662 17.7201 14.2991 17.7771 13.6012C17.8333 12.9138 17.8333 12.0569 17.8333 10.956V10.956V10.956V10.9559V10.9333V9.72945L17.8333 9.60796C17.8335 8.11397 17.8336 7.22932 17.5763 6.50103C17.1233 5.21866 16.1146 4.20997 14.8322 3.75695C14.1039 3.49967 13.2193 3.49977 11.7253 3.49995L11.6038 3.49996H11.324C11.066 3.49996 10.977 3.49919 10.8987 3.49022C10.4548 3.43938 10.0567 3.19335 9.81277 2.8191C9.76973 2.75308 9.72922 2.67378 9.61384 2.44302L9.59903 2.41341C9.44824 2.11176 9.35386 1.92297 9.24457 1.75531C8.67532 0.882059 7.74645 0.307988 6.71081 0.189366C6.51198 0.166592 6.30092 0.166606 5.9637 0.166627ZM12.3333 9.3333C12.6094 9.3333 12.8333 9.55716 12.8333 9.8333V10.6666C12.8333 10.9428 12.6094 11.1666 12.3333 11.1666C12.0572 11.1666 11.8333 10.9428 11.8333 10.6666V9.8333C11.8333 9.55716 12.0572 9.3333 12.3333 9.3333ZM12.8332 13.1666C12.8332 12.8905 12.6094 12.6666 12.3332 12.6666C12.0571 12.6666 11.8332 12.8905 11.8332 13.1666V14C11.8332 14.2761 12.0571 14.5 12.3332 14.5C12.6094 14.5 12.8332 14.2761 12.8332 14V13.1666Z" fill="#131F1E"/>
</svg>
