<svg width="33" height="33" viewBox="0 0 33 33" fill="none" xmlns="http://www.w3.org/2000/svg">
<path fill-rule="evenodd" clip-rule="evenodd" d="M15.4793 1.93591L15.4078 1.93603C13.4283 1.94841 11.5822 2.93637 10.4739 4.57656L10.4341 4.63605L10.4083 4.67459C9.82322 5.54285 8.92098 6.14707 7.89533 6.35753L7.84989 6.36667L7.66884 6.40288L7.62816 6.41102C7.27969 6.48069 7.05395 6.52582 6.85094 6.58143C4.39323 7.25463 2.62885 9.40683 2.45072 11.9488C2.436 12.1588 2.43602 12.389 2.43604 12.7443V12.7444L2.43604 12.7859L2.43604 21.6026L2.43604 21.6463C2.43603 23.0094 2.43603 24.0934 2.50748 24.968C2.58066 25.8636 2.73372 26.6273 3.09 27.3265C3.66524 28.4555 4.58313 29.3734 5.7121 29.9486C6.41135 30.3049 7.17502 30.458 8.07062 30.5311C8.94518 30.6026 10.0292 30.6026 11.3922 30.6026H11.3923H11.436L22.1027 30.6026H22.1465C23.5095 30.6026 24.5935 30.6026 25.4681 30.5311C26.3637 30.458 27.1274 30.3049 27.8267 29.9486C28.9556 29.3734 29.8735 28.4555 30.4487 27.3265C30.805 26.6273 30.9581 25.8636 31.0313 24.968C31.1027 24.0934 31.1027 23.0094 31.1027 21.6463V21.6463V21.6026L31.1027 12.7859V12.7444C31.1027 12.389 31.1027 12.1588 31.088 11.9488C30.9099 9.40683 29.1455 7.25463 26.6878 6.58143C26.4848 6.52582 26.259 6.48068 25.9106 6.41101L25.9105 6.41101L25.8699 6.40288L25.6889 6.36667L25.6434 6.35753C24.6178 6.14707 23.7155 5.54284 23.1304 4.67459L23.1046 4.63605L23.0648 4.57655C21.9565 2.93637 20.1105 1.94841 18.131 1.93603L18.0594 1.93591H15.4793ZM15.4203 3.93599L15.4793 3.93591L18.0594 3.93591L18.1185 3.93599C19.4381 3.94424 20.6688 4.60288 21.4077 5.69634L21.4405 5.74545L21.4719 5.79229C22.3496 7.09468 23.7029 8.00101 25.2414 8.31671L25.2966 8.32783L25.4777 8.36404C25.8807 8.44464 26.0327 8.47566 26.1594 8.51037C27.7979 8.95917 28.9742 10.394 29.0929 12.0886C29.1021 12.2197 29.1027 12.3749 29.1027 12.7859L29.1027 21.6026C29.1027 23.0192 29.1019 24.0215 29.0379 24.8051C28.9748 25.5771 28.8554 26.0482 28.6667 26.4185C28.2832 27.1712 27.6713 27.7831 26.9187 28.1666C26.5484 28.3553 26.0772 28.4747 25.3053 28.5378C24.5217 28.6018 23.5193 28.6026 22.1027 28.6026L11.436 28.6026C10.0194 28.6026 9.01708 28.6018 8.23348 28.5378C7.46156 28.4747 6.99039 28.3553 6.62008 28.1666C5.86743 27.7831 5.25551 27.1712 4.87202 26.4185C4.68333 26.0482 4.56391 25.5771 4.50084 24.8051C4.43682 24.0215 4.43604 23.0192 4.43604 21.6026L4.43604 12.7859C4.43604 12.3749 4.43664 12.2197 4.44582 12.0887C4.56458 10.394 5.74083 8.95918 7.37931 8.51038C7.50602 8.47567 7.65809 8.44464 8.06107 8.36405L8.24213 8.32783L8.29736 8.31671C9.83583 8.00101 11.1892 7.09468 12.0669 5.79229L12.0982 5.74545L12.131 5.69634C12.8699 4.60288 14.1006 3.94425 15.4203 3.93599ZM12.436 17.6026C12.436 15.2093 14.3761 13.2692 16.7694 13.2692C19.1626 13.2692 21.1027 15.2093 21.1027 17.6026C21.1027 19.9958 19.1626 21.9359 16.7694 21.9359C14.3761 21.9359 12.436 19.9958 12.436 17.6026ZM16.7694 11.2692C13.2716 11.2692 10.436 14.1048 10.436 17.6026C10.436 21.1004 13.2716 23.9359 16.7694 23.9359C20.2672 23.9359 23.1027 21.1004 23.1027 17.6026C23.1027 14.1048 20.2672 11.2692 16.7694 11.2692Z" fill="#24554E"/>
</svg>
