<svg width="18" height="18" viewBox="0 0 18 18" fill="none" xmlns="http://www.w3.org/2000/svg">
<path fill-rule="evenodd" clip-rule="evenodd" d="M10.058 0.23964C10.3775 -0.07988 10.8956 -0.07988 11.2151 0.23964L14.4878 3.51237C14.8073 3.83189 14.8073 4.34993 14.4878 4.66945L5.48781 13.6695C5.33437 13.8229 5.12626 13.9091 4.90927 13.9091H1.63654C1.18467 13.9091 0.818359 13.5428 0.818359 13.0909V9.81818C0.818359 9.60119 0.90456 9.39308 1.058 9.23964L10.058 0.23964ZM2.45472 10.1571V12.2727H4.57037L12.7522 4.09091L10.6365 1.97527L2.45472 10.1571Z" fill="currentColor"/>
<path fill-rule="evenodd" clip-rule="evenodd" d="M0.818359 17.1817C0.818359 16.7298 1.18467 16.3635 1.63654 16.3635H16.3638C16.8157 16.3635 17.182 16.7298 17.182 17.1817C17.182 17.6336 16.8157 17.9999 16.3638 17.9999H1.63654C1.18467 17.9999 0.818359 17.6336 0.818359 17.1817Z" fill="currentColor"/>
</svg>
