<svg width="24" height="24" viewBox="0 0 24 24" fill="none" xmlns="http://www.w3.org/2000/svg">
<path fill-rule="evenodd" clip-rule="evenodd" d="M9.96644 1.25H10H11.5H12C12.4142 1.25 12.75 1.58579 12.75 2C12.75 2.41421 12.4142 2.75 12 2.75H11.5H10C8.58749 2.75 7.57322 2.75058 6.77708 2.81563C5.9897 2.87996 5.48197 3.00359 5.07054 3.21322C4.27085 3.62068 3.62068 4.27085 3.21322 5.07054C3.00359 5.48197 2.87996 5.9897 2.81563 6.77708C2.75058 7.57322 2.75 8.58749 2.75 10V14C2.75 15.4125 2.75058 16.4268 2.81563 17.2229C2.87996 18.0103 3.00359 18.518 3.21322 18.9295C3.62068 19.7291 4.27085 20.3793 5.07054 20.7868C5.48197 20.9964 5.9897 21.12 6.77708 21.1844C7.57322 21.2494 8.58749 21.25 10 21.25H14C15.4125 21.25 16.4268 21.2494 17.2229 21.1844C18.0103 21.12 18.518 20.9964 18.9295 20.7868C19.7291 20.3793 20.3793 19.7291 20.7868 18.9295C20.9964 18.518 21.12 18.0103 21.1844 17.2229C21.2494 16.4268 21.25 15.4125 21.25 14V12.5V12C21.25 11.5858 21.5858 11.25 22 11.25C22.4142 11.25 22.75 11.5858 22.75 12V12.5V14V14.0336V14.0336V14.0337C22.75 15.4053 22.75 16.4807 22.6794 17.3451C22.6075 18.2252 22.4586 18.9523 22.1233 19.6104C21.572 20.6924 20.6924 21.572 19.6104 22.1233C18.9523 22.4586 18.2252 22.6075 17.3451 22.6794C16.4807 22.75 15.4053 22.75 14.0337 22.75H14.0336H14.0336H14H10H9.96642H9.96637H9.96632C8.59466 22.75 7.51926 22.75 6.65494 22.6794C5.77479 22.6075 5.04769 22.4586 4.38955 22.1233C3.30762 21.572 2.42798 20.6924 1.87671 19.6104C1.54138 18.9523 1.39252 18.2252 1.32061 17.3451C1.24999 16.4807 1.25 15.4053 1.25 14.0336V14V10V9.96644C1.25 8.59472 1.24999 7.51929 1.32061 6.65494C1.39252 5.77479 1.54138 5.04769 1.87671 4.38955C2.42798 3.30762 3.30762 2.42798 4.38955 1.87671C5.04769 1.54138 5.77479 1.39252 6.65494 1.32061C7.51929 1.24999 8.59472 1.25 9.96644 1.25ZM19.8408 3.90345C19.364 3.47009 18.636 3.47009 18.1592 3.90345C18.1405 3.92046 18.1161 3.94456 18.0303 4.03033L17.7233 4.33733C17.6991 5.41352 18.5865 6.30094 19.6627 6.27667L19.9697 5.96967C20.0554 5.8839 20.0795 5.85949 20.0965 5.84079C20.5299 5.36403 20.5299 4.63597 20.0965 4.15921C20.0795 4.14051 20.0554 4.1161 19.9697 4.03033C19.8839 3.94456 19.8595 3.92046 19.8408 3.90345ZM18.3917 7.54761C17.5064 7.20196 16.798 6.49363 16.4524 5.60827L13.7838 8.27685C13.3006 8.76007 13.1189 8.94495 12.9729 9.14799C12.8361 9.33832 12.7203 9.5429 12.6275 9.75816C12.5285 9.98777 12.4634 10.2387 12.2977 10.9017L12.0308 11.9692L13.0983 11.7023C13.7613 11.5366 14.0122 11.4715 14.2418 11.3725C14.4571 11.2797 14.6617 11.1639 14.852 11.0271C15.055 10.8811 15.2399 10.6994 15.7232 10.2162L18.3917 7.54761ZM17.1503 2.79348C18.1991 1.84008 19.8009 1.84008 20.8497 2.79348C20.8985 2.83785 20.9504 2.8897 21.0177 2.95702L21.0177 2.95705L21.0177 2.95707L21.0303 2.96967L21.0429 2.98227C21.1103 3.0496 21.1621 3.10146 21.2065 3.15027C22.1599 4.19914 22.1599 5.80086 21.2065 6.84973C21.1621 6.89855 21.1103 6.95042 21.0429 7.01776L21.0303 7.03033L16.7838 11.2768L16.7397 11.3209L16.7397 11.321C16.3152 11.7455 16.0415 12.0193 15.7276 12.245C15.4494 12.445 15.1504 12.6143 14.8358 12.7499C14.4807 12.903 14.1051 12.9969 13.5226 13.1424L13.5226 13.1424L13.4621 13.1576L11.1819 13.7276C10.9263 13.7915 10.656 13.7166 10.4697 13.5303C10.2834 13.344 10.2085 13.0737 10.2724 12.8181L10.8425 10.5379L10.8576 10.4774C11.0031 9.8949 11.097 9.51928 11.2501 9.16423C11.3857 8.84963 11.555 8.55063 11.755 8.27245C11.9807 7.9585 12.2545 7.68476 12.6791 7.26027L12.7232 7.21619L16.9697 2.96967L16.9822 2.95711C17.0496 2.88974 17.1014 2.83786 17.1503 2.79348Z" fill="#131F1E"/>
</svg>
