<svg width="20" height="18" viewBox="0 0 20 18" fill="none" xmlns="http://www.w3.org/2000/svg">
<path fill-rule="evenodd" clip-rule="evenodd" d="M8.06602 0.75H8.03301C6.94087 0.749994 6.07537 0.74999 5.37775 0.806988C4.66436 0.865274 4.06073 0.986882 3.50956 1.26772C2.61579 1.72312 1.88913 2.44978 1.43373 3.34355C1.1529 3.89472 1.03129 4.49834 0.973003 5.21173C0.916005 5.90936 0.91601 6.77485 0.916016 7.867V7.9V10.1V10.133C0.91601 11.2251 0.916005 12.0906 0.973003 12.7883C1.03129 13.5017 1.1529 14.1053 1.43373 14.6565C1.88913 15.5502 2.61579 16.2769 3.50956 16.7323C4.06074 17.0131 4.66436 17.1347 5.37775 17.193C6.07535 17.25 6.94083 17.25 8.03293 17.25H8.033H8.06602H11.9327H11.9657H11.9658C13.0579 17.25 13.9233 17.25 14.6209 17.193C15.3343 17.1347 15.938 17.0131 16.4891 16.7323C17.3829 16.2769 18.1096 15.5502 18.565 14.6565C18.8458 14.1053 18.9674 13.5017 19.0257 12.7883C19.0827 12.0906 19.0827 11.2252 19.0827 10.133V10.1V7.9V7.86698C19.0827 6.77484 19.0827 5.90935 19.0257 5.21173C18.9674 4.49834 18.8458 3.89472 18.565 3.34355C18.1096 2.44978 17.3829 1.72312 16.4891 1.26772C15.938 0.986882 15.3343 0.865274 14.6209 0.806988C13.9233 0.74999 13.0578 0.749994 11.9657 0.75H11.9327H8.06602ZM4.19055 2.60423C4.49502 2.44909 4.87927 2.35271 5.4999 2.30201C6.12928 2.25058 6.93353 2.25 8.06602 2.25H11.9327C13.0652 2.25 13.8694 2.25058 14.4988 2.30201C15.1194 2.35271 15.5037 2.44909 15.8082 2.60423C16.4197 2.91582 16.9169 3.413 17.2285 4.02453C17.3836 4.329 17.48 4.71325 17.5307 5.33388C17.5821 5.96326 17.5827 6.76752 17.5827 7.9V10.1C17.5827 11.2325 17.5821 12.0367 17.5307 12.6661C17.48 13.2867 17.3836 13.671 17.2285 13.9755C16.9169 14.587 16.4197 15.0842 15.8082 15.3958C15.5037 15.5509 15.1194 15.6473 14.4988 15.698C13.8694 15.7494 13.0652 15.75 11.9327 15.75H8.06602C6.93354 15.75 6.12928 15.7494 5.4999 15.698C4.87927 15.6473 4.49502 15.5509 4.19055 15.3958C3.57902 15.0842 3.08183 14.587 2.77024 13.9755C2.61511 13.671 2.51873 13.2867 2.46802 12.6661C2.4166 12.0367 2.41602 11.2325 2.41602 10.1V7.9C2.41602 6.76752 2.4166 5.96326 2.46802 5.33388C2.51873 4.71325 2.61511 4.329 2.77024 4.02453C3.08183 3.413 3.57902 2.91582 4.19055 2.60423ZM5.41537 5.04263C5.07073 4.81286 4.60508 4.90599 4.37531 5.25064C4.14555 5.59529 4.23868 6.06094 4.58332 6.2907L5.41666 6.84626L6.03324 7.25732L6.15933 7.34141C7.32052 8.11597 8.06726 8.61408 8.89242 8.81182C9.62007 8.98619 10.3786 8.98619 11.1063 8.81182C11.9314 8.61408 12.6782 8.11597 13.8394 7.34141L13.8394 7.34141L13.9655 7.25732L14.582 6.84626L15.4154 6.2907C15.76 6.06094 15.8532 5.59529 15.6234 5.25064C15.3936 4.90599 14.928 4.81286 14.5833 5.04263L13.75 5.59818L13.1334 6.00924C11.8014 6.89727 11.2889 7.2256 10.7567 7.35312C10.2589 7.47242 9.73984 7.47242 9.24197 7.35312C8.70985 7.2256 8.19734 6.89727 6.86529 6.00924L6.24871 5.59818L5.41537 5.04263Z" fill="#24554E"/>
</svg>
