<svg width="18" height="18" viewBox="0 0 18 18" fill="none" xmlns="http://www.w3.org/2000/svg">
<path fill-rule="evenodd" clip-rule="evenodd" d="M8.99936 0.166756L8.88208 0.166752C6.82233 0.166647 5.66611 0.166588 4.71144 0.467595C2.68887 1.10531 1.10457 2.6896 0.466862 4.71217C0.165856 5.66684 0.165915 6.82306 0.166019 8.88282L0.166023 9.00009L0.166019 9.11736C0.165915 11.1771 0.165856 12.3333 0.466862 13.288C1.10457 15.3106 2.68887 16.8949 4.71144 17.5326C5.66611 17.8336 6.82234 17.8335 8.8821 17.8334L8.99936 17.8334L9.11661 17.8334C11.1764 17.8335 12.3326 17.8336 13.2873 17.5326C15.3098 16.8949 16.8941 15.3106 17.5318 13.288C17.8329 12.3333 17.8328 11.1771 17.8327 9.11735L17.8327 9.00009L17.8327 8.88283C17.8328 6.82307 17.8329 5.66685 17.5318 4.71217C16.8941 2.6896 15.3098 1.10531 13.2873 0.467595C12.3326 0.166588 11.1764 0.166647 9.11663 0.166752L8.99936 0.166756ZM5.01214 1.42131C5.80099 1.17259 6.79036 1.16676 8.99936 1.16676C11.2084 1.16676 12.1977 1.17259 12.9866 1.42131C14.698 1.96091 16.0385 3.30147 16.5781 5.01288C16.8269 5.80172 16.8327 6.79109 16.8327 9.00009C16.8327 11.2091 16.8269 12.1985 16.5781 12.9873C16.0385 14.6987 14.698 16.0393 12.9866 16.5789C12.1977 16.8276 11.2084 16.8334 8.99936 16.8334C6.79036 16.8334 5.80099 16.8276 5.01214 16.5789C3.30074 16.0393 1.96018 14.6987 1.42058 12.9873C1.17186 12.1985 1.16602 11.2091 1.16602 9.00009C1.16602 6.79109 1.17186 5.80172 1.42058 5.01288C1.96018 3.30147 3.30074 1.96091 5.01214 1.42131ZM4.83269 5.16676C4.55655 5.16676 4.33269 5.39061 4.33269 5.66676C4.33269 5.9429 4.55655 6.16676 4.83269 6.16676H13.166C13.4422 6.16676 13.666 5.9429 13.666 5.66676C13.666 5.39061 13.4422 5.16676 13.166 5.16676H4.83269ZM5.99936 9.00009C5.99936 8.72395 6.22321 8.50009 6.49936 8.50009H11.4994C11.7755 8.50009 11.9994 8.72395 11.9994 9.00009C11.9994 9.27623 11.7755 9.50009 11.4994 9.50009H6.49936C6.22321 9.50009 5.99936 9.27623 5.99936 9.00009ZM8.16602 11.8334C7.88988 11.8334 7.66602 12.0573 7.66602 12.3334C7.66602 12.6096 7.88988 12.8334 8.16602 12.8334H9.83269C10.1088 12.8334 10.3327 12.6096 10.3327 12.3334C10.3327 12.0573 10.1088 11.8334 9.83269 11.8334H8.16602Z" fill="#444C4B"/>
</svg>
