<svg width="19" height="19" viewBox="0 0 19 19" fill="none" xmlns="http://www.w3.org/2000/svg">
<path fill-rule="evenodd" clip-rule="evenodd" d="M3.24078 0.917045L3.17178 0.917018C2.75914 0.916777 2.4322 0.916586 2.10465 0.997723C1.55846 1.13302 1.07918 1.464 0.726553 1.8625C0.373929 2.26101 0.103746 2.77701 0.0359279 3.33561C-0.00466058 3.66992 0.0289125 3.94269 0.070512 4.28066L0.0760842 4.32599C0.390681 6.89163 1.1661 9.21165 2.34855 11.2149C3.62257 13.3734 5.3629 15.1533 7.48645 16.471C9.55647 17.7554 11.98 18.5942 14.6745 18.9246L14.7199 18.9302C15.0579 18.9718 15.3308 19.0054 15.6651 18.9648C16.2237 18.897 16.7397 18.6268 17.1382 18.2742C17.5367 17.9215 17.8677 17.4423 18.003 16.8961C18.0841 16.5684 18.0839 16.2328 18.0837 15.8075L18.0837 15.7347L18.0837 15.6729C18.0839 15.3242 18.084 15.0513 18.0341 14.7921C17.8671 13.9248 17.2938 13.1905 16.4929 12.8182C16.2535 12.7069 15.9805 12.6388 15.6296 12.5513L15.566 12.5354L15.2613 12.4592L15.1764 12.438L15.1764 12.438C14.376 12.2377 13.8607 12.1088 13.3434 12.0941C12.621 12.0737 11.9035 12.2183 11.2454 12.5169C10.7742 12.7308 10.349 13.0493 9.68861 13.5439L9.61864 13.5964L7.85007 14.9206C6.27148 13.8607 4.94652 12.5075 3.91704 10.9021L5.19346 9.38514L5.24676 9.32181C5.74758 8.72678 6.06973 8.34402 6.30062 7.91788C6.70931 7.16358 6.90608 6.31267 6.87004 5.45552C6.84968 4.97128 6.72827 4.48595 6.53953 3.73146L6.51944 3.65116L6.46533 3.43469L6.44945 3.3711L6.44944 3.37108C6.3619 3.02019 6.29379 2.74718 6.18248 2.50776C5.81018 1.7069 5.07588 1.13358 4.20864 0.966628C3.94936 0.916716 3.66799 0.916851 3.30633 0.917024L3.24078 0.917045ZM14.8571 17.4358C12.7796 17.181 10.8987 16.6033 9.24799 15.7478L10.5177 14.7971C11.2718 14.2324 11.561 14.021 11.8654 13.8828C12.3156 13.6785 12.8066 13.5795 13.3008 13.5935C13.635 13.603 13.9835 13.6859 14.8975 13.9144L15.2022 13.9906C15.6466 14.1017 15.7683 14.1355 15.8606 14.1784C16.2246 14.3477 16.4852 14.6814 16.5611 15.0756C16.5804 15.176 16.5837 15.2953 16.5837 15.7347C16.5837 16.2666 16.5786 16.4078 16.547 16.5354C16.4979 16.7336 16.3594 16.9604 16.1442 17.1508C15.929 17.3412 15.687 17.4511 15.4843 17.4757C15.349 17.4922 15.2533 17.4843 14.8571 17.4358ZM4.0457 8.4194L3.12926 9.50856C2.34166 7.91741 1.80722 6.11935 1.56493 4.14342C1.51637 3.74739 1.50856 3.65176 1.52499 3.51639C1.54961 3.31366 1.65948 3.07173 1.84991 2.85652C2.04033 2.64132 2.2671 2.50282 2.46532 2.45372C2.59346 2.42197 2.72782 2.41704 3.24078 2.41704C3.69888 2.41704 3.82517 2.42035 3.92508 2.43958C4.31928 2.51547 4.65305 2.77607 4.82228 3.1401C4.86517 3.23236 4.89901 3.35408 5.01011 3.7985L5.06423 4.01496C5.2797 4.87687 5.35822 5.20585 5.37136 5.51854C5.39602 6.10501 5.26139 6.68721 4.98176 7.20331C4.83267 7.47848 4.6177 7.73959 4.0457 8.4194Z" fill="#24554E"/>
</svg>
