<svg width="18" height="18" viewBox="0 0 18 18" fill="none" xmlns="http://www.w3.org/2000/svg">
<path fill-rule="evenodd" clip-rule="evenodd" d="M8.22917 0.166592L8.14013 0.166547C7.60558 0.166139 7.20326 0.165832 6.84848 0.305367C6.53689 0.427914 6.26105 0.626726 6.04626 0.883573C5.80169 1.17603 5.67476 1.5578 5.5061 2.06505L5.47799 2.14953L5.30564 2.66659H2.33268H0.666016C0.389873 2.66659 0.166016 2.89045 0.166016 3.16659C0.166016 3.44273 0.389873 3.66659 0.666016 3.66659H1.86123L2.32433 11.5394L2.3255 11.5592C2.38128 12.5075 2.42474 13.2463 2.50316 13.8402C2.58283 14.4436 2.70261 14.9345 2.92971 15.3794C3.40188 16.3043 4.1794 17.0374 5.13041 17.4544C5.58784 17.655 6.08497 17.7458 6.69196 17.7899C7.28945 17.8333 8.02951 17.8333 8.97938 17.8333H8.97941H8.99935H9.01929H9.01932C9.96919 17.8333 10.7092 17.8333 11.3067 17.7899C11.9137 17.7458 12.4109 17.655 12.8683 17.4544C13.8193 17.0374 14.5968 16.3043 15.069 15.3794C15.2961 14.9345 15.4159 14.4436 15.4955 13.8402C15.574 13.2463 15.6174 12.5075 15.6732 11.5593L15.6732 11.5593L15.6744 11.5394L16.1375 3.66659H17.3327C17.6088 3.66659 17.8327 3.44273 17.8327 3.16659C17.8327 2.89045 17.6088 2.66659 17.3327 2.66659H15.666H12.6931L12.5207 2.14953L12.4926 2.06505C12.3239 1.5578 12.197 1.17603 11.9524 0.883573C11.7376 0.626726 11.4618 0.427914 11.1502 0.305367C10.7954 0.165832 10.3931 0.166139 9.85857 0.166547L9.76953 0.166592H8.22917ZM12.321 3.66659C12.3287 3.66677 12.3365 3.66677 12.3442 3.66659H15.1357L14.6761 11.4806C14.6189 12.453 14.5773 13.1556 14.5041 13.7093C14.4317 14.2577 14.3325 14.6227 14.1783 14.9247C13.8111 15.644 13.2064 16.2142 12.4667 16.5386C12.1562 16.6748 11.786 16.7524 11.2343 16.7925C10.6772 16.833 9.97336 16.8333 8.99935 16.8333C8.02534 16.8333 7.32147 16.833 6.76443 16.7925C6.21269 16.7524 5.8425 16.6748 5.53202 16.5386C4.79234 16.2142 4.18761 15.644 3.82036 14.9247C3.66621 14.6227 3.56697 14.2577 3.49456 13.7093C3.42144 13.1556 3.3798 12.453 3.32261 11.4806L2.86296 3.66659H5.65452C5.66225 3.66677 5.66996 3.66677 5.67766 3.66659H12.321ZM11.639 2.66659L11.572 2.46576C11.3618 1.83517 11.2922 1.6529 11.1853 1.52508C11.0779 1.39666 10.94 1.29725 10.7842 1.23598C10.6292 1.175 10.4342 1.16659 9.76953 1.16659H8.22917C7.56447 1.16659 7.36954 1.175 7.21448 1.23598C7.05869 1.29725 6.92077 1.39666 6.81337 1.52508C6.70648 1.6529 6.63687 1.83517 6.42667 2.46576L6.35973 2.66659H11.639Z" fill="#727978"/>
</svg>
