<svg width="18" height="18" viewBox="0 0 18 18" fill="none" xmlns="http://www.w3.org/2000/svg">
<path fill-rule="evenodd" clip-rule="evenodd" d="M8.22978 0.166714L8.14074 0.166669C7.60619 0.166261 7.20387 0.165954 6.84909 0.305489C6.5375 0.428036 6.26166 0.626848 6.04687 0.883695C5.8023 1.17615 5.67537 1.55792 5.50671 2.06517L5.4786 2.14965L5.30625 2.66671H2.33329H0.666626C0.390484 2.66671 0.166626 2.89057 0.166626 3.16671C0.166626 3.44286 0.390484 3.66671 0.666626 3.66671H1.86184L2.32494 11.5395L2.32611 11.5594C2.38189 12.5076 2.42535 13.2464 2.50377 13.8403C2.58344 14.4437 2.70322 14.9346 2.93033 15.3795C3.40249 16.3044 4.18001 17.0375 5.13102 17.4545C5.58845 17.6551 6.08559 17.7459 6.69257 17.79C7.29006 17.8334 8.03012 17.8334 8.97999 17.8334H8.98002H8.99996H9.0199H9.01993C9.9698 17.8334 10.7099 17.8334 11.3073 17.79C11.9143 17.7459 12.4115 17.6551 12.8689 17.4545C13.8199 17.0375 14.5974 16.3044 15.0696 15.3795C15.2967 14.9346 15.4165 14.4437 15.4961 13.8403C15.5746 13.2464 15.618 12.5076 15.6738 11.5594L15.6738 11.5594L15.675 11.5395L16.1381 3.66671H17.3333C17.6094 3.66671 17.8333 3.44286 17.8333 3.16671C17.8333 2.89057 17.6094 2.66671 17.3333 2.66671H15.6666H12.6937L12.5213 2.14965L12.4932 2.06517C12.3246 1.55792 12.1976 1.17615 11.9531 0.883695C11.7383 0.626848 11.4624 0.428036 11.1508 0.305489C10.796 0.165954 10.3937 0.166261 9.85918 0.166669L9.77014 0.166714H8.22978ZM12.3217 3.66671C12.3293 3.66689 12.3371 3.6669 12.3448 3.66671H15.1364L14.6767 11.4808C14.6195 12.4531 14.5779 13.1557 14.5048 13.7094C14.4323 14.2579 14.3331 14.6228 14.1789 14.9248C13.8117 15.6442 13.207 16.2144 12.4673 16.5387C12.1568 16.6749 11.7866 16.7525 11.2349 16.7926C10.6778 16.8331 9.97397 16.8334 8.99996 16.8334C8.02595 16.8334 7.32208 16.8331 6.76504 16.7926C6.2133 16.7525 5.84311 16.6749 5.53263 16.5387C4.79295 16.2144 4.18822 15.6442 3.82097 14.9248C3.66682 14.6228 3.56758 14.2579 3.49517 13.7094C3.42205 13.1557 3.38041 12.4531 3.32322 11.4808L2.86357 3.66671H5.65513C5.66286 3.6669 5.67057 3.66689 5.67827 3.66671H12.3217ZM11.6396 2.66671L11.5726 2.46588C11.3624 1.83529 11.2928 1.65302 11.1859 1.5252C11.0785 1.39678 10.9406 1.29738 10.7848 1.2361C10.6298 1.17512 10.4348 1.16671 9.77014 1.16671H8.22978C7.56508 1.16671 7.37015 1.17512 7.21509 1.2361C7.0593 1.29738 6.92138 1.39678 6.81398 1.5252C6.70709 1.65302 6.63748 1.83529 6.42728 2.46588L6.36034 2.66671H11.6396Z" fill="#131F1E"/>
</svg>
