<svg width="18" height="18" viewBox="0 0 18 18" fill="none" xmlns="http://www.w3.org/2000/svg">
<path fill-rule="evenodd" clip-rule="evenodd" d="M12.1529 2.5177C13.0582 2.26422 13.7039 2.08395 14.2007 1.99277C14.7008 1.90097 14.9667 1.91739 15.143 1.98416C15.5449 2.13639 15.8623 2.45373 16.0145 2.85567C16.0813 3.03198 16.0977 3.29784 16.0059 3.79798C15.9147 4.29477 15.7344 4.94044 15.4809 5.84572L13.8772 11.5732C13.4784 12.9972 13.1877 14.034 12.9146 14.7684C12.6307 15.5316 12.4111 15.8296 12.2373 15.9356C11.8009 16.2015 11.2592 16.227 10.7998 16.0033C10.6168 15.9142 10.3702 15.6381 10.0158 14.9049C9.67488 14.1995 9.28796 13.1946 8.75713 11.8144L8.63279 11.4911L8.61084 11.434C8.4591 11.0391 8.34988 10.7548 8.19327 10.5126L10.4694 8.23646C10.6646 8.04119 10.6646 7.72461 10.4694 7.52935C10.2741 7.33409 9.95753 7.33409 9.76227 7.52935L7.48618 9.80544C7.24389 9.6488 6.95965 9.53958 6.56471 9.38781L6.50761 9.36587L6.18413 9.24145C4.80393 8.7106 3.7991 8.32368 3.09364 7.9827C2.36051 7.62836 2.08444 7.38173 1.9953 7.19869C1.77157 6.73929 1.79709 6.1976 2.06303 5.76127C2.16898 5.58742 2.46702 5.36785 3.23022 5.084C3.96462 4.81087 5.00137 4.52013 6.42537 4.12141L12.1529 2.5177ZM15.4972 1.04899C15.0588 0.882961 14.5694 0.908384 14.0202 1.0092C13.4728 1.10966 12.783 1.30282 11.9089 1.54757L11.8833 1.55473L6.15574 3.15845L6.1302 3.1656L6.13017 3.16561C4.7369 3.55572 3.65982 3.85731 2.88164 4.14672C2.12751 4.42719 1.51314 4.74202 1.20913 5.24083C0.7659 5.96804 0.723362 6.87087 1.09625 7.63653C1.35202 8.16172 1.93406 8.53292 2.65847 8.88305C3.406 9.24436 4.44996 9.64588 5.8004 10.1653L5.80042 10.1653L5.82515 10.1748L6.14863 10.2992C6.66137 10.4964 6.83501 10.5671 6.9772 10.6682C7.11386 10.7654 7.23326 10.8848 7.33043 11.0215C7.43154 11.1637 7.50224 11.3373 7.69944 11.85L7.82378 12.1734L7.83332 12.1982L7.83333 12.1982C8.3527 13.5486 8.7542 14.5926 9.11549 15.3401C9.46562 16.0645 9.83681 16.6466 10.362 16.9023C11.1277 17.2752 12.0305 17.2327 12.7577 16.7895C13.2565 16.4855 13.5714 15.8711 13.8518 15.117C14.1413 14.3388 14.4428 13.2617 14.833 11.8685L14.8401 11.8429L16.4439 6.11536L16.4511 6.08977L16.4511 6.08967C16.6958 5.21562 16.889 4.52581 16.9894 3.97852C17.0903 3.42923 17.1157 2.93987 16.9497 2.5015C16.696 1.83159 16.1671 1.3027 15.4972 1.04899Z" fill="#131F1E"/>
</svg>
