<svg width="18" height="18" viewBox="0 0 18 18" fill="none" xmlns="http://www.w3.org/2000/svg">
<path fill-rule="evenodd" clip-rule="evenodd" d="M6.5013 9.00326C6.5013 7.62242 7.62047 6.50325 9.0013 6.50325C10.3821 6.50325 11.5013 7.62242 11.5013 9.00326C11.5013 10.3841 10.3821 11.5033 9.0013 11.5033C7.62047 11.5033 6.5013 10.3841 6.5013 9.00326ZM17.3346 10.6699V7.33659H14.5896C14.4738 6.94909 14.323 6.57742 14.133 6.22826L16.0721 4.28909L13.7155 1.93242L11.7763 3.87159C11.4271 3.68159 11.0555 3.52992 10.668 3.41492V0.669922H7.33464V3.41492C6.94714 3.52992 6.57547 3.68159 6.2263 3.87159L4.28714 1.93242L1.93047 4.28909L3.86964 6.22826C3.67964 6.57742 3.5288 6.94909 3.41297 7.33659H0.667969V10.6699H3.41297C3.5288 11.0574 3.67964 11.4291 3.86964 11.7783L2.51964 13.1274L1.93047 13.7174L4.28714 16.0741L6.2263 14.1349C6.57547 14.3249 6.94714 14.4758 7.33464 14.5916V17.3366H10.668V14.5916C11.0555 14.4758 11.4271 14.3249 11.7763 14.1349L13.7155 16.0741L16.0721 13.7174L15.483 13.1274L14.133 11.7783C14.323 11.4291 14.4738 11.0574 14.5896 10.6699H17.3346Z" fill="currentColor"/>
</svg>
