<svg width="18" height="18" viewBox="0 0 18 18" fill="none" xmlns="http://www.w3.org/2000/svg">
<path fill-rule="evenodd" clip-rule="evenodd" d="M11.8748 2.66699C12.1128 1.24814 13.3468 0.166992 14.8333 0.166992C16.4901 0.166992 17.8333 1.51014 17.8333 3.16699C17.8333 4.82385 16.4901 6.16699 14.8333 6.16699C13.3468 6.16699 12.1128 5.08585 11.8748 3.66699L6.49996 3.66699C5.08909 3.66699 3.91907 4.69822 3.70253 6.04806C5.10368 6.30072 6.16663 7.52639 6.16663 9.00033C6.16663 10.4743 5.10368 11.6999 3.70253 11.9526C3.91907 13.3024 5.08908 14.3337 6.49996 14.3337L11.8748 14.3337C12.1128 12.9148 13.3468 11.8337 14.8333 11.8337C16.4901 11.8337 17.8333 13.1768 17.8333 14.8337C17.8333 16.4905 16.4901 17.8337 14.8333 17.8337C13.3468 17.8337 12.1128 16.7525 11.8748 15.3337L6.49996 15.3337C4.53958 15.3337 2.92291 13.8621 2.69431 11.9634C1.26186 11.7368 0.166626 10.4965 0.166626 9.00033C0.166626 7.50418 1.26185 6.26383 2.69431 6.0373C2.92291 4.13855 4.53959 2.66699 6.49996 2.66699L11.8748 2.66699ZM12.8333 3.16699C12.8333 4.27156 13.7287 5.16699 14.8333 5.16699C15.9379 5.16699 16.8333 4.27156 16.8333 3.16699C16.8333 2.06242 15.9379 1.16699 14.8333 1.16699C13.7287 1.16699 12.8333 2.06242 12.8333 3.16699ZM3.16663 7.00033C2.06206 7.00033 1.16663 7.89576 1.16663 9.00033C1.16663 10.1049 2.06206 11.0003 3.16663 11.0003C4.2712 11.0003 5.16663 10.1049 5.16663 9.00033C5.16663 7.89576 4.2712 7.00033 3.16663 7.00033ZM12.8333 14.8337C12.8333 13.7291 13.7287 12.8337 14.8333 12.8337C15.9379 12.8337 16.8333 13.7291 16.8333 14.8337C16.8333 15.9382 15.9379 16.8337 14.8333 16.8337C13.7287 16.8337 12.8333 15.9382 12.8333 14.8337Z" fill="#131F1E"/>
</svg>
